<svg version="1.1" xmlns="http://www.w3.org/2000/svg" xmlns:xlink="http://www.w3.org/1999/xlink" width="513.58021" height="403.02216" viewBox="0,0,513.58021,403.02216"><g transform="translate(8.61087,24.03041)"><g data-paper-data="{&quot;isPaintingLayer&quot;:true}" fill="#e8c282" fill-rule="nonzero" stroke="none" stroke-width="0.5" stroke-linecap="butt" stroke-linejoin="miter" stroke-miterlimit="10" stroke-dasharray="" stroke-dashoffset="0" style="mix-blend-mode: normal"><path d="M49.47916,47.13687c2.33587,-3.27133 4.92586,-5.32033 7.76919,-6.70388c3.85716,-2.43433 8.42636,-3.843 13.32456,-3.843c0.67589,0 1.34551,0.02682 2.00787,0.07946c0.14222,-0.02615 0.28482,-0.05263 0.42781,-0.07946c6.69179,-1.25577 13.3991,-2.49096 19.98766,-4.20793c13.37195,-3.48471 31.33683,-12.8486 44.50598,-5.39206c1.23515,0.69936 2.86925,0.68663 3.93746,1.62131c2.71044,2.37163 4.90676,6.5806 6.42611,9.68711c1.51935,3.10651 3.49329,7.42424 3.7013,11.01977c0.08198,1.41703 -0.93132,2.6991 -1.13758,4.10343c-0.93108,6.33906 -3.40223,6.34948 -5.07926,11.40409c-0.60883,1.83501 3.75342,0.93445 5.60724,1.48337c3.40161,1.00723 5.57404,2.69123 8.78204,4.10425c1.73118,0.76253 5.02738,0.18166 6.69635,0.57866c6.67144,1.58694 16.22509,5.13611 18.45443,12.20619c1.13825,3.60981 2.00977,7.303 2.79508,11.00565c1.46809,6.92179 -4.01881,15.77615 -8.10473,20.47307c-1.90649,2.19158 -3.14433,5.28675 -5.29015,7.25858c-0.83626,0.76846 -2.17557,1.14463 -2.92058,2.06471c-3.98931,4.92678 -5.80861,6.61376 -10.19646,11.11147c-13.99478,14.34516 -23.50402,26.87261 -45.72614,21.32044c-11.60931,-2.90058 -23.20908,-9.7944 -28.95898,-20.61774c-1.58914,-2.99132 -2.92281,-7.39614 -3.25985,-10.76656c-0.1916,-1.91598 0.63465,-3.91549 0.13485,-5.77503c-1.13063,-4.20665 -6.51433,-9.87621 -8.48568,-14.8933c-1.31201,-3.33906 -2.60923,-6.68596 -3.77904,-10.07745c-0.33471,-0.97039 -1.00174,-3.38271 -1.20115,-4.87184c-0.12709,-0.94906 0.56346,-2.4161 -0.28583,-2.85833c-3.31287,-0.12525 -6.46071,-0.89513 -9.32171,-2.18782c-0.77253,-0.22428 -1.51743,-0.516 -2.21702,-0.91904c-0.97889,-0.56395 -1.85937,-1.26647 -2.70006,-2.02501c-1.372,-1.05219 -2.63177,-2.24341 -3.75824,-3.55261c-1.14348,-0.98755 -2.23977,-2.23025 -2.63397,-3.68881c-2.16617,-3.70159 -3.40772,-8.01009 -3.40772,-12.60856c0,-3.13655 0.57762,-6.13819 1.63228,-8.90435c0.44467,-1.99787 1.0954,-3.89822 2.27397,-5.54877z"/><path d="M128.83906,249.9455c2.46051,-3.44588 5.73515,-5.95202 9.4185,-7.65885c3.48492,-1.84387 7.45815,-2.88803 11.67525,-2.88803c0.18032,0 0.36019,0.00191 0.5396,0.00571c2.01821,-0.1044 4.03446,-0.04973 6.00023,0.1472c3.76741,0.37741 7.61946,2.18599 11.28932,1.25437c1.95718,-0.49685 0.02905,-4.04213 0.19344,-6.05469c0.25551,-3.12804 0.99684,-6.10741 1.81268,-9.16768c2.49217,-9.3484 7.92715,-16.77073 15.55197,-22.75438c12.7486,-10.00458 28.18605,-12.54836 43.77316,-15.78219c4.09285,-0.84914 15.02501,0.35219 16.23847,-0.55494c8.20508,-6.13372 6.19782,-13.47068 11.56454,-19.73185c1.95634,-2.2824 3.82782,-4.73751 6.28894,-6.46363c2.13186,-1.49519 5.1484,-1.41498 7.21086,-3.00453c2.48956,-1.91871 3.57235,-5.19003 5.64469,-7.55323c2.86458,-3.26663 6.87706,-5.59025 10.23355,-8.42931c-2.4651,-3.91867 -4.12013,-8.12517 -4.44955,-12.63137c-0.6867,-9.39368 3.30582,-20.38446 11.11509,-26.45749c1.87591,-1.45884 8.2232,-2.7259 9.81536,-4.91357c1.48332,-2.03812 0.99876,-7.05057 2.083,-9.35158c6.45705,-13.70334 21.31523,-18.4394 35.43368,-16.96345c21.76493,2.27531 33.79171,30.16347 27.41006,49.7567c-1.65107,5.0692 -3.80461,8.63712 -7.59648,12.42899c-1.23009,1.23009 -5.03283,2.51228 -3.72307,3.65716c11.91585,10.41583 23.52369,13.7225 24.44533,31.66208c0.09921,1.93118 -0.31539,3.80896 -0.90557,5.66921c-0.44366,2.59465 -1.28716,5.05285 -2.46484,7.30893c-4.1718,7.99191 -12.53703,13.44747 -22.17647,13.44747c-3.13655,0 -6.13819,-0.57762 -8.90435,-1.63228c-1.99787,-0.44467 -3.89822,-1.0954 -5.54877,-2.27397c-1.31907,-0.94187 -2.47898,-2.11887 -3.58229,-3.38827c0.28945,0.70365 0.54786,1.41194 0.77274,2.11869c4.89844,15.39509 -4.28172,25.90045 -13.66583,36.24799c-0.03215,0.03545 2.08371,2.18488 3.1538,3.94921c2.608,4.30002 4.76778,7.76619 6.14328,12.69251c3.86056,13.82651 -1.13261,28.53628 -12.85681,36.88705c-10.4256,7.42581 -27.68084,10.28179 -39.28825,12.94936c-19.96466,4.58819 -45.7594,11.39793 -67.43499,9.13196c-10.42663,-1.09 -20.56039,-7.07186 -30.95323,-8.78742c-10.18162,-1.68069 -20.50387,-2.36056 -30.76888,-3.41876c-0.1961,-0.02022 -0.39635,-0.04131 -0.60044,-0.06338c-0.59252,0.04201 -1.19075,0.06338 -1.79397,0.06338c-4.52301,0 -8.76548,-1.20113 -12.42584,-3.30182c-4.32071,-1.82921 -7.96725,-4.65261 -9.16644,-9.08961c-2.16617,-3.70159 -3.40772,-8.01009 -3.40772,-12.60856c0,-3.13655 0.57762,-6.13819 1.63228,-8.90435c0.44467,-1.99787 1.0954,-3.89822 2.27397,-5.54877z"/><path d="M375.60932,302.18905c0,-2.00824 0.23679,-3.96118 0.68398,-5.83241l0.06246,-0.9889l0.49527,-0.98137c0.78628,-2.39559 1.92479,-4.63148 3.35428,-6.64644l1.26644,-2.50942l1.68207,-0.93855c3.47986,-3.39453 7.946,-5.78264 12.92805,-6.69399l0.07297,-0.72975l0.56327,-1.77027l0.28789,-1.83527l1.39754,-3.66855l0.18092,-0.36183l0.30476,-0.95783l0.41361,-0.47891l2.87976,-5.75951l0.83011,-1.31434l0.72932,-1.37283l2.34183,-3.51274l2.30043,-6.9013l0.5766,-1.28626l0.02837,-0.11988l0.51096,-1.08322l0.48992,-1.0929l0.07256,-0.09956l0.60136,-1.27487l2.08358,-3.47263l1.61405,-5.64917l0.85379,-2.15029l0.82363,-2.16202l5.50384,-11.00768l0.69784,-2.09352l0.72524,-1.61784l0.63116,-1.65681l1.7248,-3.4496l1.93428,-5.80285v-2.24146l0.22846,-2.28458l-0.01339,-0.28199l0.1083,-0.66715l0.06725,-0.67253l0.0856,-0.26901l0.36791,-2.2663l4.55488,-17.08078l2.15908,-19.43175v-37.1072l-0.10173,-0.40694l-1.88923,-4.72306l-0.63352,-2.19622l-0.66908,-2.18565l-0.95444,-4.77219l-2.02717,-6.08151l-0.28401,-1.25778l-0.40358,-1.22466l-2.51936,-11.33713l-0.11412,-0.95442l-0.22995,-0.93331l-1.94562,-13.61937l-1.06544,-2.13087l-0.41361,-0.47891l-0.30476,-0.95783l-0.18092,-0.36183l-1.39754,-3.66855l-0.28789,-1.83527l-0.56327,-1.77027l-0.39062,-3.90625v-0.22416l-0.73128,-1.8282l-0.20403,-0.70732l-0.30113,-0.67175l-1.25968,-3.77904l-0.43082,-1.90793l-0.51194,-1.88779l-0.64167,-3.85004l-2.6615,-5.323l-3.79045,-5.68568l-0.33904,-0.45206l-0.04252,-0.02685l-0.06244,-0.06075l-0.07738,-0.04002l-3.03835,-2.48592l-2.52273,-2.52273l-0.30985,-0.23239h-2.1527l-0.92455,0.61637l-8.48973,6.0641l-2.89344,1.65891l-0.14955,0.10899l-0.18593,0.08335l-0.17677,0.10135l-0.17611,0.05684l-3.04346,1.36431l-5.87256,1.95752l-3.4496,1.7248l-1.31724,0.50181l-0.10483,0.06471l-1.12726,0.40466l-1.11922,0.42637l-0.12171,0.01909l-1.32669,0.47625l-10.07745,2.51936l-0.59016,0.08637l-0.57032,0.17459l-4.77219,0.95444l-2.30247,0.76749l-3.82932,0.86469l-0.08711,0.00119l-0.08302,0.02641l-1.25293,0.12529l-2.81011,1.40505l-0.97254,0.37049l-0.92303,0.48075l-18.89521,7.55809l-1.73801,0.50135l-0.19947,0.09634l-0.92204,0.22717l-0.91241,0.2632l-0.22094,0.01604l-1.75636,0.43273l-6.9636,0.9948l-10.80281,3.24084l-1.30902,0.25418l-0.09248,0.03746l-1.22788,0.21892l-1.22437,0.23774l-0.09976,-0.00166l-1.31277,0.23406l-16.37585,1.25968l-0.96097,-0.02201l-0.95645,0.09564h-0.53892l-0.40317,0.89939l-0.63116,1.65681l-1.25968,2.51936l-0.66844,1.05836l-0.59849,2.21443l-4.91067,4.24103l-2.20766,2.26898l-0.81072,0.3378l-0.6647,0.57406l-3.01673,0.95987l-5.98941,2.49559l-2.2483,-0.45501l-1.24556,0.12456h-2.51936l-3.90625,-0.39062l-8.59375,-2.73437l-0.42702,-0.36879l-1.52611,-0.41246l-3.07736,-3.56326l-3.56326,-3.07736l-0.41246,-1.52611l-0.36879,-0.42702l-2.73437,-8.59375l-0.39062,-3.90625v-7.55809l0.39063,-3.90625l2.73438,-8.59375l5.55262,-6.42935l-0.19031,-0.94036l1.11582,-2.67797l1.28744,-3.58645l0.63665,-1.03137l1.32741,-3.18579l1.60021,-1.55696l1.17275,-1.89986l2.82197,-1.9869l0.8687,-0.84522l1.67541,-1.05815l0.89034,-1.03091l1.18983,-0.32157l1.83833,-1.29434l1.22159,-0.02319l2.69159,-1.02537l6.95224,-1.09055l0.55955,-0.15123l0.14857,0.04015l1.24898,-0.19592l11.00565,2.79508l0.8362,0.93889l1.21373,0.32804l1.99722,2.31257l11.69797,-0.89984l10.01651,-3.00495l1.83408,-0.35613l1.81409,-0.44695l5.85104,-0.83586l15.14722,-6.05889l4.82943,-2.41471l0.47891,-0.41361l0.95783,-0.30476l0.36183,-0.18092l3.66855,-1.39754l1.83527,-0.28789l1.77027,-0.56327l3.50925,-0.35093l0.04939,-0.01646l1.51635,-0.3424l1.48644,-0.45503l5.71506,-1.14301l6.83794,-1.70949l2.58414,-1.29207l1.65681,-0.63116l1.61784,-0.72524l3.9918,-1.3306l5.75879,-4.11342l0.3509,-0.20118l0.31255,-0.25674l3.77904,-2.51936l1.37283,-0.72932l1.31434,-0.83011l3.24015,-1.62008l0.47891,-0.41361l0.95783,-0.30476l0.36183,-0.18092l3.66855,-1.39754l1.83527,-0.28789l1.77027,-0.56327l3.90625,-0.39062h0.40454l0.993,-0.15576l0.61332,0.15576h9.83476l0.61332,-0.15576l0.993,0.15576h0.40454l3.90625,0.39063l1.77027,0.56327l1.83527,0.28789l3.66855,1.39754l0.36183,0.18092l0.95783,0.30476l0.20601,0.17792l1.49809,0.49936l3.58227,1.60584l0.0704,0.05131l0.08226,0.02868l3.35938,2.03125l5.03872,3.77904l1.30548,1.19963l1.37219,1.1227l1.30652,1.30652l1.81372,1.1455l1.33147,1.29549l1.51277,1.07825l2.65625,2.89063l0.24273,0.32363l0.72041,0.70094l0.24338,0.58412l2.57252,3.43003l0.35983,0.59511l0.44142,0.53738l5.03872,7.55809l0.72932,1.37283l0.83011,1.31434l5.03872,10.07745l1.18734,3.11676l0.08434,0.16472l0.05333,0.19666l0.07254,0.19041l0.02868,0.18282l0.87295,3.219l0.93721,5.62324l0.40707,1.22121l2.24652,5.61629l1.08806,3.77194l0.05963,0.8216l0.24977,0.78498l0.28275,2.82753l1.24759,2.49519l1.39754,3.66855l0.0135,0.08606l0.03789,0.07845l0.93913,3.81175l2.38358,16.68506l2.03132,9.14092l2.11153,6.3346l0.3424,1.51635l0.45503,1.48644l0.80954,4.04768l1.66691,4.16727l0.46942,1.62731l0.57223,1.59407l1.25968,5.03872l0.2815,1.92359l0.07431,0.23355l0.0866,0.86604l0.12603,0.86118l-0.01545,0.2446l0.19344,1.93443v41.56947l-0.1377,1.377l-0.01521,1.38379l-2.51936,22.67426l-0.39107,1.83185l-0.30015,1.84893l-4.1946,15.72974v3.02231l-0.39062,3.90625l-0.02641,0.08302l-0.00119,0.08711l-0.86469,3.82932l-3.77904,11.33713l-0.72524,1.61784l-0.63116,1.65681l-1.7248,3.4496l-0.69784,2.09352l-0.72524,1.61784l-0.63116,1.65681l-5.2593,10.5186l-0.19327,0.67645l7.03684,4.69123l1.90357,1.56364l1.9066,1.55994l6.2984,6.2984l0.9932,1.21391l0.12753,0.10833l0.67081,0.86743l0.69438,0.84868l0.07688,0.14863l0.95949,1.24072l3.5844,5.73503l1.06416,0.87414l1.9066,1.55994l1.68055,1.68055l0.08887,0.04603l0.19906,0.24189l1.81057,1.81057l2.48592,3.03835l0.51819,1.00183l0.7167,0.87093l1.81343,3.48179l0.95096,2.37739l0.14392,0.27825l0.0073,0.09981l3.93654,9.84135l1.08806,3.77194l0.05963,0.8216l0.24977,0.78498l0.39063,3.90625v6.2984l-0.19344,1.93443l0.01545,0.2446l-0.12603,0.86118l-0.0866,0.86604l-0.07431,0.23355l-0.2815,1.92359l-1.25968,5.03872l-0.47625,1.32669l-0.01909,0.12171l-0.42637,1.11922l-0.40466,1.12726l-0.06471,0.10483l-0.50181,1.31724l-3.33434,6.66867l-0.27069,0.97642l-1.0876,1.3595l-1.18273,1.87266l-1.7741,1.82338l-1.58925,1.98656l-1.7115,1.40587l-1.2141,1.24782l-0.93531,0.38971l-0.89193,0.59462l-2.02861,2.02861l-3.03835,2.48592l-0.07738,0.04002l-0.06244,0.06075l-3.31916,2.09631l-8.06119,4.03059l-3.23532,2.42649l-2.49647,1.50949l-0.20506,0.16141l-0.33662,0.16612l-0.32122,0.19423l-0.24642,0.08591l-2.61612,1.29107l-8.84883,3.31831l-3.86509,1.93254l-3.66855,1.39754l-0.30394,0.04768l-0.27934,0.12893l-3.82763,0.87212l-10.07745,1.25968l-1.55405,0.03837l-1.54681,0.15468h-1.76818l-0.61332,0.15576l-0.993,-0.15576h-0.40454l-3.90625,-0.39062l-1.77027,-0.56327l-1.83527,-0.28789l-3.66855,-1.39754l-0.36183,-0.18092l-0.95783,-0.30476l-0.41485,-0.35828l-0.87186,-0.2417l-1.3595,-1.0876l-1.87266,-1.18273l-1.82338,-1.7741l-1.98656,-1.58925l-1.3838,-1.68462l-1.01353,-0.525l-2.48836,-3.02383l-2.80674,-2.73088l-0.77708,-1.865l-1.4717,-2.82566l-7.55809,-18.89521l-0.32757,-1.13557l-0.44465,-1.09504l-6.2984,-21.41458l-0.09543,-0.50607l-0.174,-0.4847l-1.12371,-4.49483c-0.57528,-2.1047 -0.88241,-4.32012 -0.88241,-6.60728zM431.81814,320.45464l2.36088,5.90219l5.94392,-2.22897l2.17203,-1.62902l1.92133,-1.16173l1.89833,-1.19895l6.44881,-3.2244l0.91035,-0.91035l0.80193,-0.65612l-0.36048,-0.90119l-0.41033,-0.27355l-3.03352,-2.49182l-0.85465,-1.06831l-1.04273,-0.88569l-2.40156,-3.10546l-0.89772,-1.43636l-0.43701,-0.54627l-0.07621,-0.27488l-2.62819,-4.2051l-0.78846,0.91295l-0.31628,0.50078l-1.03414,1.06286l-4.7771,5.53138l-2.25179,0.60859l-4.08225,1.70094z"/><path d="M92.87556,309.40681c-3.44065,23.51109 -15.86636,33.86217 -35.80826,44.10215c-1.08639,0.55785 -1.52222,1.92896 -2.44649,2.72719c-2.3946,2.06806 -6.77507,4.85644 -9.75859,5.80574c-5.49873,1.7496 -20.32376,-0.30143 -24.0135,-3.48802c-1.63911,-1.41559 -4.76076,-6.155 -6.74229,-7.01678c-3.74531,-1.62888 -7.12815,-2.48374 -10.46806,-5.15566c-9.45787,-7.56629 -13.54303,-23.05912 -11.89159,-34.44585c2.77918,-19.16251 14.1378,-39.23338 33.71263,-45.33721c3.38476,-1.05544 7.2164,-1.93246 10.71542,-1.92058c2.84315,0.00965 5.68249,1.26623 8.49014,0.81829c0.83042,-0.59661 1.69892,-1.14356 2.60114,-1.63652c0.38379,-0.32331 0.77902,-0.62523 1.21725,-0.83123c2.87183,-1.34994 7.61921,-2.75672 11.00843,-2.78411c0.64032,-0.00517 1.27545,0.29534 1.80669,0.65287c7.82024,0.63868 14.62182,4.87651 18.74547,11.0542c1.3676,1.3843 2.45573,2.97517 3.12876,4.86957c0.41315,1.16289 0.45443,2.41706 0.49551,3.67089c0.26323,1.21424 0.43824,2.46137 0.51799,3.73432c0.90039,2.44501 4.47807,4.27843 5.74233,6.72267c2.88481,5.57731 3.54347,12.09435 2.93156,18.21347z"/></g></g></svg>