<svg version="1.1" xmlns="http://www.w3.org/2000/svg" xmlns:xlink="http://www.w3.org/1999/xlink" width="460.01145" height="308.54617" viewBox="0,0,460.01145,308.54617"><g transform="translate(-11.19398,-6.2019)"><g data-paper-data="{&quot;isPaintingLayer&quot;:true}" fill="#e8c282" fill-rule="nonzero" stroke="none" stroke-width="0.5" stroke-linecap="butt" stroke-linejoin="miter" stroke-miterlimit="10" stroke-dasharray="" stroke-dashoffset="0" style="mix-blend-mode: normal"><path d="M138.73151,121.37558c-9.53305,-1.90661 -14.50176,-2.74813 -20.52326,-10.09318c-2.22789,-2.71758 -3.98696,-4.21852 -4.52134,-7.60268c-0.33614,-2.12876 -3.58437,-2.39539 -5.33458,-3.65293c-3.83924,-2.75853 -8.32843,-6.57034 -10.52686,-10.82062c-2.8368,-5.48448 -3.21444,-11.38202 -3.125,-17.43139c0.22161,-14.98941 1.31797,-31.62547 13.111,-42.51172c13.51856,-12.4791 43.89951,-7.90622 57.23751,-7.78923c1.30853,0.01148 2.62345,0.13215 3.90625,0.39063c17.4628,3.51862 30.86127,8.38505 41.90269,22.18682c6.62306,8.27883 2.41103,25.43968 -0.67728,34.26218c-3.46041,9.88547 -10.19376,17.28199 -17.56145,24.22414c-3.2801,3.09065 -5.89999,6.91341 -10.00446,9.30007c-1.7863,1.03869 -3.85895,1.53047 -5.62883,2.5969c-5.22594,3.14885 -8.76449,5.96639 -15.11032,7.42649c-6.42827,1.47907 -14.07178,0.41694 -20.69239,-0.24512z"/><path d="M456.78709,254.77623c-8.43047,12.6457 -22.92673,25.7254 -38.80817,27.23926c-14.20714,1.35426 -31.88239,-5.36587 -40.8521,-16.23825c-3.14803,-3.81579 -2.93202,-9.29507 -4.9894,-13.42338c-1.95374,-3.92032 -6.31338,-6.18713 -7.73171,-10.64473c-3.62614,-11.39644 -1.34043,-28.38929 4.46925,-38.76115c6.652,-11.87562 19.25276,-21.02672 32.97825,-22.54253c8.71872,-0.96287 19.61265,0.55478 27.27905,1.19316c14.10851,1.17481 29.49681,4.53836 37.53915,17.56695c6.57223,10.64701 5.37522,27.75931 0.38742,38.62297c-2.75174,5.99341 -7.25507,10.73111 -10.20574,16.63244z"/><path d="M94.70047,239.205c0,-2.34757 0.32357,-4.61957 0.92856,-6.77382l0.34501,-2.76009l1.2542,-1.43337c3.85602,-7.88629 11.74111,-13.44287 20.97409,-13.98857l1.82316,-0.61236l2.70545,0.75002c2.13102,0.2575 4.17945,0.78311 6.11057,1.5421l2.98878,-1.19551l1.52722,-0.44054l0.15469,-0.07677l1.04908,-0.27047l1.04094,-0.30027l0.17224,-0.0125l1.53916,-0.39682l32.7517,-5.03872l1.41816,-0.07521l0.12266,-0.03021l1.19021,-0.03941l1.18919,-0.06306l0.12481,0.01955l1.41937,-0.047l18.89521,1.25968l1.26011,0.21143l0.08168,-0.00243l1.26355,0.22814l1.26628,0.21246l0.07605,0.0299l1.25739,0.22703l8.81777,2.51936l3.64864,1.44872l1.09568,0.72785l2.84077,0.76778l1.94733,2.25481l23.02462,-34.9339l-0.00335,-0.0531l0.12603,-0.86118l0.0866,-0.86604l0.07431,-0.23355l0.2815,-1.92359l1.25968,-5.03872l0.78788,-2.1948l0.05618,-0.2785l0.26034,-0.60322l0.22198,-0.61836l0.14923,-0.24176l0.92403,-2.14104l18.89521,-34.01139l0.19928,-0.2871l0.14737,-0.31689l19.41018,-32.75468l13.23119,-29.77017l0.39667,-2.38001v-2.96966l0.39063,-3.90625l0.02641,-0.08302l0.00119,-0.08711l0.86469,-3.82932l1.88347,-5.65041l0.04618,-0.63111l0.46179,-0.89279l0.12793,-0.38378l1.60584,-3.58227l1.09417,-1.5013l0.85348,-1.65006l2.48592,-3.03835l0.28605,-0.28605l0.59201,-0.8123l0.54383,-0.32354l1.55527,-1.55527l5.57242,-6.6869l0.80943,-0.79498l0.71843,-0.87808l5.03872,-5.03872l1.37219,-1.1227l1.30548,-1.19963l4.7263,-3.54472l5.99345,-4.79476l1.57317,-1.01965l1.54421,-1.33363l4.34204,-1.38156l4.25362,-1.63364l2.03894,0.07673l1.46841,-0.14684l0.04939,-0.01646l3.82932,-0.86469l0.08711,-0.00119l0.08302,-0.02641l3.90625,-0.39062h10.58594l0.61332,-0.15576l0.993,0.15576h0.40454l3.90625,0.39063l1.77027,0.56327l1.83527,0.28789l3.66855,1.39754l0.36183,0.18092l0.95783,0.30476l0.47891,0.41361l10.79824,5.39912l1.07017,0.6759l0.07257,0.02787l1.08412,0.70267l1.0923,0.68987l0.05572,0.05421l1.06215,0.68843l6.2984,5.03872l1.91139,1.86984l0.22625,0.16933l0.3208,0.36583l0.34781,0.34025l0.15675,0.23513l1.76296,2.01039l12.59681,17.63553l0.20118,0.3509l0.25674,0.31255l7.55809,11.33713l0.99457,1.87213l1.04946,1.84192l5.03872,11.33713l0.14814,0.44919l0.21849,0.4195l2.0675,5.16876l0.37462,0.43377l0.30476,0.95783l0.18092,0.36183l1.39754,3.66855l0.28789,1.83527l0.56327,1.77027l0.39063,3.90625v0.40454l0.15576,0.993l-0.15576,0.61332v3.02786l-0.12456,1.24556l0.45501,2.2483l-2.49559,5.98941l-0.95987,3.01673l-0.57406,0.6647l-0.3378,0.81072l-2.26898,2.20766l-4.24103,4.91067l-2.04662,0.55314l-2.80591,2.29574l-0.39315,0.20336l-1.74617,1.50805l-3.0386,0.96683l-2.83227,1.46497l-2.30108,0.16837l-0.4218,0.13421l-2.97579,0.29758l-0.38999,0.0975l-18.23298,7.97693l-0.08984,0.02905l-0.08265,0.04564l-6.09001,2.61l-0.07574,0.06541l-0.29852,0.09498l-2.3535,1.00864l-3.74428,1.17971l-1.12263,0.10906l-1.07482,0.34199l-3.90625,0.39063h-2.56053l-0.3118,0.03029l-0.09539,-0.03029h-17.92985l-3.13964,0.44852l-1.92063,8.83488l-0.02398,0.07392l-0.00935,0.07715l-7.16853,32.01945l0.04988,0.0315l2.21443,0.59849l4.24103,4.91067l2.26898,2.20766l0.3378,0.81072l0.57406,0.6647l0.95987,3.01673l2.49559,5.98941l-0.45501,2.2483l0.12456,1.24556v2.6267l0.13544,0.23576l-0.13544,1.85096v2.84467l-0.39062,3.90625l-0.13421,0.4218l-0.16837,2.30108l-1.46497,2.83227l-0.96683,3.0386l-1.18637,1.37369l-1.10228,3.60077l-0.49535,0.89511l-1.0048,2.96526l-1.66149,1.85278l-1.205,2.17746l-2.47136,1.92217l-0.68301,0.76165l-3.16888,2.31724l-0.43777,0.25751l-2.20211,1.71275l-0.80026,0.05335l-3.15394,1.85526l-0.36726,3.67264l-0.56327,1.77027l-0.28789,1.83527l-1.39754,3.66855l-0.03239,0.06478l-0.59409,2.37636l-1.32637,3.69488l-0.18621,0.30166l-0.09795,0.3407l-1.84178,3.46688l-1.656,2.484l-0.56362,1.12724l-2.09631,3.31916l-0.06075,0.06244l-0.04002,0.07738l-2.48592,3.03835l-0.76893,0.76893l-2.90746,4.36119l-0.46562,1.72279l-2.66201,2.29901l-0.1223,0.14889l-0.67988,0.54391l-5.12956,4.43007l-0.67749,0.21556l-0.55516,0.44413l-6.53141,1.81069l-0.82969,0.26399l-0.19173,0.01917l-0.80579,0.22339l-0.43567,0.16597l-0.12171,0.01909l-1.32669,0.47625l-13.9716,3.4929l-20.30204,7.16542l-0.21389,0.05226l-0.20092,0.09007l-0.6029,0.20097l-0.99338,0.66225l-1.37283,0.72932l-1.31434,0.83011l-8.27887,4.13944l-0.47891,0.41361l-0.95783,0.30476l-0.36183,0.18092l-3.66855,1.39754l-1.83527,0.28789l-1.77027,0.56327l-3.90625,0.39063h-0.40454l-0.993,0.15576l-0.61332,-0.15576h-45.85701l-1.377,-0.1377l-1.38379,-0.01521l-11.33713,-1.25968l-2.04721,-0.43704l-2.06003,-0.37195l-16.66261,-4.76075l-2.18209,-0.43642l-3.69144,0.69215l-2.3051,0.19798l-2.30211,0.23021h-15.62467l-0.61332,0.15576l-0.993,-0.15576h-0.40454l-3.90625,-0.39062l-1.77027,-0.56327l-1.83527,-0.28789l-3.66855,-1.39754l-0.36183,-0.18092l-0.95783,-0.30476l-0.47891,-0.41361l-5.75951,-2.87976l-1.08381,-0.68451l-1.71128,-0.71303l-3.446,-3.54172l-3.54172,-3.446l-0.71303,-1.71128l-0.68451,-1.08381l-0.15739,-0.31479l-1.10229,-0.98172l-0.93169,-3.66855l-0.46585,-1.22285l-0.18829,-1.20033l-0.12427,-0.29824l0.03869,-0.19118l-1.12368,-4.42449l0.21922,-1.39754l-0.21922,-1.39754l1.1467,-4.51514l0.25084,-1.59911l0.46585,-1.22285l0.93169,-3.66855l0.93231,-0.83034l0.15336,-0.55318l1.0876,-1.3595l1.18273,-1.87266l0.30309,-0.31151v-1.56484l0.24512,-2.45122l0.24036,-2.45169l0.00341,-0.01705c-2.21868,-3.28492 -3.6772,-7.12548 -4.12319,-11.26931l-0.2796,-0.97251l0.14187,-1.135c-0.00467,-0.19891 -0.00702,-0.3984 -0.00702,-0.59844zM292.44654,185.82403l-1.7679,3.18222l-0.04863,0.48627l0.01545,0.2446l-0.12603,0.86118l-0.0866,0.86604l-0.07431,0.23355l-0.2815,1.92359l-1.25968,5.03872l-1.32637,3.69488l-0.1515,0.24543l-0.07823,0.27761l-1.82351,3.47652l-5.52391,8.3811l6.57169,-2.28581zM344.39743,88.10206l1.64371,0.47257l0.5291,0.05291l3.23337,1.0288l0.85055,0.24453l1.0711,-0.15301l1.77138,-0.07485l1.76416,-0.17642h17.54281l4.01484,-1.72065l11.27307,-4.93197l-5.5405,-8.31074l-10.34584,-14.48417l-1.52097,-1.21677l-4.94927,-2.47464h-2.67136l-1.72444,0.38939l-0.53842,0.43073l-0.32883,0.21313l-0.28854,0.26515l-3.61737,2.71303l-2.98053,2.98053l-5.57242,6.6869l-0.51765,0.50841l-0.19149,1.91491l-0.13494,2.05789l-1.25968,7.55809l-0.55553,2.04853l-0.02951,0.26674l-0.24103,0.73086l-0.20143,0.74276l-0.1223,0.23887l-0.66476,2.01573l-0.00969,0.0218z"/><path d="M51.01465,80.80603c3.21435,2.29519 5.31271,4.92907 6.73607,7.82033c2.41455,3.84638 3.81081,8.39685 3.81081,13.27342c0,1.14948 -0.07758,2.28084 -0.22778,3.38914c0.07255,0.63457 0.14763,1.27296 0.22778,1.9147c1.83443,14.68721 3.38956,21.89656 3.77904,36.58684c0.00621,0.23415 7.03653,6.79827 7.30027,7.11794c4.13012,5.00621 6.31218,13.89832 6.55622,20.27383c0.26113,6.82174 -0.31081,12.45151 -3.125,18.7984c-1.24723,2.81291 -5.88861,6.8874 -5.4798,10.32154c1.65922,13.93814 3.3511,28.66469 0.30028,42.44685c-0.95737,4.32491 -3.65313,8.40768 -4.54396,12.52655c-0.32329,1.49475 2.51987,7.03102 2.78893,7.90966c1.58547,5.17739 4.29962,11.01365 3.9169,16.46742c-1.04458,14.88533 -13.78709,24.75861 -28.64962,23.93292c-18.67075,-1.03726 -25.38745,-29.18972 -28.646,-43.92834c-1.39633,-6.31569 -0.08587,-13.14525 2.22109,-19.03576c0.84048,-2.14605 3.58409,-5.90817 3.65908,-8.19555c0.22542,-6.87535 0.25137,-13.76269 0,-20.63714c-0.23742,-6.49304 -2.04974,-13.1137 -1.39453,-19.66573c0.33704,-3.37042 1.67071,-7.77524 3.25985,-10.76656c0.1832,-0.34485 2.21955,-2.30658 1.89443,-2.83619c-1.95107,-3.17824 -5.20428,-5.23682 -6.93315,-8.69456c-5.89912,-11.79823 -2.19584,-26.53827 -3.99406,-38.82609c-1.35801,-9.27973 -4.30922,-19.62942 -2.90999,-29.09987v0c0,-3.69719 0.80256,-7.20693 2.24297,-10.3645c1.18217,-2.59147 2.79397,-4.94573 4.74435,-6.97173c4.54801,-4.72434 10.93707,-7.66376 18.01267,-7.66376c3.13655,0 6.13819,0.57762 8.90435,1.63228c1.99787,0.44467 3.89822,1.0954 5.54877,2.27397z"/></g></g></svg>