<svg version="1.1" xmlns="http://www.w3.org/2000/svg" xmlns:xlink="http://www.w3.org/1999/xlink" width="439.51912" height="358.69356" viewBox="0,0,439.51912,358.69356"><g transform="translate(-21.63898,4.67263)"><g data-paper-data="{&quot;isPaintingLayer&quot;:true}" fill="#e8c282" fill-rule="nonzero" stroke="none" stroke-width="0.5" stroke-linecap="butt" stroke-linejoin="miter" stroke-miterlimit="10" stroke-dasharray="" stroke-dashoffset="0" style="mix-blend-mode: normal"><path d="M423.06677,303.64997c7.10861,7.89536 14.9039,14.01435 14.03544,26.38992c-1.04458,14.88533 -13.78709,24.75861 -28.64962,23.93292c-9.94023,-0.55224 -11.0421,-6.24059 -17.25535,-11.59861c-4.09952,-3.53523 -7.57229,-7.83261 -11.81609,-11.2237c-1.9818,-1.58359 -5.0705,-2.40286 -7.26764,-3.75913c-2.50099,-1.54382 -5.02126,-3.18158 -7.52738,-4.89858c-2.0357,0.01666 -4.16082,-0.24383 -6.28317,-0.74927c-4.1417,-0.75561 -7.92721,-2.53173 -11.08643,-5.05827c-1.29022,-0.92808 -2.49227,-1.95146 -3.57231,-3.05834c-6.41966,0.70215 -12.97689,0.6278 -19.63074,0.96534c-2.63122,0.13348 -5.16821,1.24694 -7.80279,1.25968c-25.61321,0.12391 -51.22709,0.05749 -76.84054,0c-6.20792,-0.01393 -12.31335,-1.73923 -18.44492,-2.51936c-6.05969,-0.77099 -11.46388,-1.22029 -16.97698,-4.14844c-6.94864,-3.6906 -12.94065,-10.46633 -15.3382,-18.00147c-1.07097,-3.36589 -0.82864,-7.82633 -0.82864,-11.32476c0,-0.4537 0.94546,-5.9741 0.7778,-6.0304c-4.1799,-1.40371 -8.98302,-1.19237 -12.76975,-3.45128c-3.25058,-1.93909 -5.49633,-5.33513 -7.42187,-8.59375c-1.39853,-2.36675 -3.3384,-8.7126 -3.11125,-12.36255c0.34321,-5.5149 0.51803,-10.14326 3.11125,-15.15681c9.41009,-18.19284 40.80832,-24.19097 58.35945,-18.81631c13.25205,4.05816 24.22469,14.59766 25.04629,28.79695c0.24352,4.20858 0.00697,8.47268 -1.24178,12.55051c-0.66757,2.17998 -1.70036,4.55239 -2.5605,6.69231c-0.32106,0.79876 -1.89767,2.3629 -1.0368,2.36537c17.00193,0.04885 34.00425,0.0916 51.00601,0c0.84298,-0.00454 -0.83023,-1.47121 -1.16246,-2.24598c-0.94026,-2.19271 -2.15469,-5.14884 -3.02453,-7.67748c-1.27566,-3.7084 -5.41551,-17.70148 -8.39112,-21.22687c-3.05735,-3.62225 -5.4458,-7.93918 -9.17699,-10.86259c-1.47233,-1.15357 -3.72232,-1.8293 -5.33402,-2.88285c-13.13378,-8.58539 -26.41489,-15.19431 -39.78306,-23.65411c-9.07705,-5.74424 -18.60862,-9.73314 -23.88664,-19.67057c-3.81071,-7.17478 -4.72275,-14.99497 -3.75782,-22.9523c0.33674,-2.77697 0.61953,-2.78358 1.76755,-5.55515c0.44002,-1.06229 2.19685,-2.77413 1.15093,-3.25178c-9.66762,-4.41502 -12.82201,-12.26213 -16.55996,-21.39502c-1.89036,-4.61869 -2.37445,-9.43679 -4.82834,-13.78402c-0.73461,-1.30141 -0.89512,-3.52086 -2.36108,-3.81121c-2.21902,-0.43949 -6.06675,2.66246 -7.62312,3.52197c-5.03658,2.78147 -10.12477,4.21092 -14.94837,7.25834c-1.12475,0.71059 -2.25836,1.39899 -3.40093,2.06354c3.70654,8.71236 4.39348,16.2149 3.1963,27.52244c0,4.53886 -1.20957,8.79521 -3.32394,12.4643c-1.9748,4.29591 -4.90345,8.00256 -9.06749,9.12798c-3.70159,2.16617 -8.01009,3.40772 -12.60856,3.40772c-3.13655,0 -6.13819,-0.57762 -8.90435,-1.63228c-1.99787,-0.44467 -3.89822,-1.0954 -5.54877,-2.27397c-1.55686,-1.11167 -2.76992,-2.60042 -3.92843,-4.149c-1.02377,-1.11002 -1.94828,-2.313 -2.75941,-3.59483c-0.16208,-0.18767 -0.42114,-0.80228 -0.48623,-0.56301c-3.83107,14.08162 -6.21991,24.80989 -24.98099,24.80989c-17.02237,0 -19.54221,-8.20002 -24.49687,-20.74016c-0.86649,-2.19307 -3.09012,-3.58741 -4.33623,-5.58931c-1.96073,-3.14995 -4.09033,-8.64889 -5.61614,-12.03296c-3.79874,-8.42513 -7.87996,-25.70231 -4.97372,-34.83618c2.70005,-8.48587 10.57253,-16.86981 18.99517,-20.52954c-1.41945,-1.87061 -2.82243,-3.67622 -4.21888,-5.38034c-2.07427,-2.53127 -10.16909,-10.71268 -16.32362,-18.4468c-2.85862,-2.6629 -5.09246,-5.98771 -6.45745,-9.73038c-0.97452,-2.67204 -1.50619,-5.55707 -1.50619,-8.56627c0,-0.14268 0.0012,-0.28508 0.00358,-0.42719c0.16839,-10.05044 6.26762,-18.65725 14.9491,-22.47186c1.60408,-1.10937 3.3638,-1.90546 5.35169,-2.23639c3.71849,-0.61902 7.31322,-0.23959 10.77321,0.87933c3.2717,0.81712 6.28815,2.27884 8.90661,4.24242c2.59814,-3.10398 5.90751,-5.6989 9.49328,-7.49178c7.35357,-3.67679 16.88142,-0.99905 23.40141,2.92518c1.86385,1.1218 3.30008,2.96994 5.31772,3.78327c8.22654,3.31622 16.21522,4.45193 24.60297,6.72657l1.90793,0.43082c0.91173,0.30391 2.47871,0.05691 3.55864,0.36739c7.88576,2.26716 15.65227,6.03277 20.96654,12.67561c0.45104,0.5638 0.26759,1.43317 0.56514,2.09102c1.0018,2.21488 2.10309,4.47391 2.88194,6.79753c14.88523,-4.87116 31.91811,-5.44195 43.16111,7.4873c1.8342,2.1093 4.40638,4.64107 6.16779,6.7761c2.8943,3.50824 3.51461,8.86598 6.08503,12.62749c0.4212,0.61638 1.30534,-0.73986 1.88236,-1.21356c1.01141,-0.83031 2.00839,-1.67874 3.03835,-2.48592c2.26955,-1.77865 5.22816,-3.25801 8.01019,-4.1432c8.08968,-2.57399 23.033,-3.43407 29.42232,2.08398c2.43351,2.10167 5.03102,4.06417 7.11833,6.51001c1.55768,1.82524 2.60445,5.92658 3.49778,8.34147c4.98271,13.46956 2.75079,25.67147 -2.44298,38.82368c-1.58039,4.00201 -6.19356,13.44363 -8.7435,16.53447c-2.09627,2.54093 -4.68402,4.6332 -6.98771,6.98771c-0.36014,0.36808 -11.25531,-6.35582 -1.10384,1.44195c7.43421,5.71052 15.12885,7.43534 22.4105,12.21962c4.62752,3.04043 9.13627,6.26279 13.82113,9.21409c5.18414,3.26582 10.16932,5.15522 14.50734,9.82628c6.36091,6.84925 14.99448,15.53173 18.96537,24.28431c5.16743,11.38997 7.66902,25.98805 15.21524,36.13336c2.98757,4.01656 8.49448,5.52669 12.43165,8.7435c0.64253,-0.39049 1.30419,-0.75691 1.9856,-1.09762c2.53682,-1.26841 5.74971,-2.25646 8.59375,-2.73437c2.08321,-0.35007 4.48465,0.64604 6.3252,-0.39062c10.73652,-6.04721 20.50013,-11.41159 32.72491,-13.46587c11.70965,-1.96771 33.60677,3.03194 38.2054,14.92741c2.29726,5.94243 4.30807,7.20872 3.29766,12.20133c-0.49593,2.4505 -2.10144,12.42667 -3.90625,14.45313c-2.09128,2.3481 -4.81348,4.0495 -7.13919,6.16566c-0.57509,0.52328 -0.83198,1.4469 -1.55137,1.74189c-6.22407,2.55225 -13.47793,3.35954 -20.08848,2.2487c-1.33191,-0.22382 -2.92749,-1.10873 -4.28168,-1.10873c-0.86081,0 -1.69539,0.11187 -2.50902,0.31196c4.78023,3.75334 9.02997,8.5105 12.99951,12.91938z"/><path d="M29.68043,270.45466c1.58242,-1.35319 3.42186,-2.26731 5.33981,-3.0042c2.26387,-1.1904 4.73263,-2.04377 7.33957,-2.49342c0.57121,-0.22185 1.34878,-2.18058 1.69629,-2.6659c3.32499,-4.64348 6.6609,-9.27996 10.07745,-13.85649c8.12016,-10.87712 21.78138,-17.58966 35.23691,-16.29941c3.67621,0.35251 7.42552,3.04021 10.79721,4.1972c0.81451,0.2795 1.79799,0.16684 2.4939,0.67403c7.73208,5.63525 11.61731,15.99071 10.68173,25.34655c-0.33704,3.37042 -1.67071,7.77524 -3.25985,10.76656c-0.41299,0.7774 -3.39966,4.10634 -2.9455,4.28301c1.39707,0.54345 3.18807,0.21574 4.34139,1.17335c10.86009,9.01719 12.83725,22.88232 8.00428,35.29785c-0.85288,2.19099 -1.23854,4.64737 -2.62333,6.54743c-9.06869,12.44308 -31.73919,14.0264 -45.82009,12.86103c-5.19375,-0.42985 -11.13586,-1.19389 -15.90663,-3.41144c-4.9916,-2.32019 -11.97831,-6.14399 -15.34763,-10.24951c-1.38777,-1.69099 -3.5515,-6.69625 -4.83167,-7.92209c-2.88396,-1.52749 -5.43318,-3.60279 -7.50904,-6.08727c-2.63831,-2.34996 -4.73732,-5.09841 -4.81169,-9.01512c-0.64742,-2.22254 -0.99456,-4.57302 -0.99456,-7.00458c0,-5.35349 1.68271,-10.31396 4.54807,-14.38135c0.85574,-1.81158 1.95782,-3.4431 3.49338,-4.75623z"/><path d="M443.78608,29.05514c2.14544,0.96175 4.64737,1.23854 6.54743,2.62333c8.08092,5.88949 12.6147,17.68555 10.15625,27.51936c-2.10381,8.41524 -2.02263,8.56798 -7.07889,13.62424c-1.10973,1.10973 -1.88961,2.53747 -3.07736,3.56326c-0.53068,0.45831 -1.32115,0.47748 -1.95312,0.78125c-0.31728,0.15251 -1.31177,0.14508 -1.00639,0.32021c0.88647,0.50838 2.20177,0.11422 2.95951,0.79987c14.69048,13.29271 14.88444,39.98429 -4.5693,48.49315c-7.77009,3.39856 -17.03629,3.39856 -24.80638,0c-2.09033,-0.91429 -4.32593,-3.56131 -6.97844,-3.61423c-2.11917,-0.04228 -4.61173,2.02862 -6.95326,2.99925c12.56719,1.31784 22.36223,11.94629 22.36223,24.8625c0,13.80712 -11.19288,25 -25,25c-13.80712,0 -25,-11.19288 -25,-25c0,-11.71624 8.05957,-21.55006 18.937,-24.25975c-7.8826,-0.76709 -15.94357,-4.3323 -22.29299,-8.38249c-4.68489,-2.98841 -9.28845,-8.8058 -12.75713,-13.41688c-2.86767,1.14621 -5.99727,1.77666 -9.27411,1.77666c-13.80712,0 -25,-11.19288 -25,-25c0,-13.01785 9.9498,-23.71181 22.65943,-24.89188c1.25302,-6.03584 3.4168,-12.01357 6.43319,-17.78049c3.81753,-7.2986 10.18535,-13.44913 16.02014,-19.09414c11.86614,-11.48019 34.01084,-17.62519 49.09991,-8.63607c6.18619,3.68535 10.31394,9.1722 13.62002,15.39541z"/><path d="M246.41975,55.09797c-7.72697,1.9624 -24.16515,-7.31468 -26.89091,-13.85649c-1.20401,-2.88962 -2.19921,-5.87523 -2.96978,-8.90933c-0.76983,-3.03122 0.85028,-6.19693 1.30333,-9.29139c1.83561,-12.53768 14.42422,-21.8349 26.41928,-23.85057c1.77077,-0.29756 3.17974,-0.37441 4.42683,-0.31189c0.65939,-0.05216 1.32598,-0.07874 1.99878,-0.07874c3.66961,0 7.15456,0.79064 10.29379,2.21085c0.09394,0.00745 0.18878,0.01469 0.28453,0.0217c3.61613,0.26493 9.73375,-2.54204 13.00801,-3.469c8.82289,-2.4978 19.53699,-3.05499 28.1878,-0.89229c6.54521,1.6363 13.43943,3.59713 17.1875,10.15625c7.38525,12.92419 4.25294,28.7369 -8.59375,36.32813c-7.75464,4.58228 -16.45957,2.48015 -24.81891,3.125c-7.16525,0.55274 -12.51137,6.16771 -19.4583,7.88854c-0.97331,0.2411 -2.94539,-0.56336 -4.19526,-0.33046c-2.75415,0.5132 -5.33565,0.98161 -8.11636,1.25968z"/></g></g></svg>